HIERARCHY
ROOT root
{
	OFFSET	0	13.1	24.9
	CHANNELS 6  Xposition Yposition Zposition Xrotation Yrotation Zrotation
	JOINT spine_1
	{
		OFFSET	0	9.99999	0
		CHANNELS 3  Xrotation Yrotation Zrotation
		JOINT spine_2
		{
			OFFSET	0	112	-10
			CHANNELS 3  Xrotation Yrotation Zrotation
			JOINT spine_3
			{
				OFFSET	0	206.5	19.3
				CHANNELS 3  Xrotation Yrotation Zrotation
				JOINT spine_4
				{
					OFFSET	0	110.4	14.6
					CHANNELS 3  Xrotation Yrotation Zrotation
					JOINT neck_1
					{
						OFFSET	0	71.8	-50.3
						CHANNELS 3  Xrotation Yrotation Zrotation
						JOINT neck_2
						{
							OFFSET	0	86.2	-25.8
							CHANNELS 3  Xrotation Yrotation Zrotation
							JOINT head_ee
							{
								OFFSET	0	179.8	-8.7
								CHANNELS 3  Xrotation Yrotation Zrotation
								End Site
								{
									OFFSET	1	0	0
								}
							}
						}
					}
					JOINT left_clavicle
					{
						OFFSET	-43.2	22.4	-70.8
						CHANNELS 3  Xrotation Yrotation Zrotation
						JOINT left_shoulder
						{
							OFFSET	-93.9	-5.79999	48.7
							CHANNELS 3  Xrotation Yrotation Zrotation
							JOINT left_elbow
							{
								OFFSET	-291.4	-30.8	15.2
								CHANNELS 3  Xrotation Yrotation Zrotation
								JOINT left_lowarm_twist
								{
									OFFSET	-110.7	-3.89999	13.6
									CHANNELS 3  Xrotation Yrotation Zrotation
									JOINT left_hand
									{
										OFFSET	-110.7	-3.89999	13.6
										CHANNELS 3  Xrotation Yrotation Zrotation
										JOINT left_ee
										{
											OFFSET	-80.8	-5.10001	12.1
											CHANNELS 3  Xrotation Yrotation Zrotation
											End Site
											{
												OFFSET	1	0	0
											}
										}
									}
								}
							}
						}
					}
					JOINT right_clavicle
					{
						OFFSET	43.2	22.4	-70.8
						CHANNELS 3  Xrotation Yrotation Zrotation
						JOINT right_shoulder
						{
							OFFSET	93.9	-5.79999	48.7
							CHANNELS 3  Xrotation Yrotation Zrotation
							JOINT right_elbow
							{
								OFFSET	291.4	-30.8	15.2
								CHANNELS 3  Xrotation Yrotation Zrotation
								JOINT right_lowarm_twist
								{
									OFFSET	110.7	-3.89999	13.6
									CHANNELS 3  Xrotation Yrotation Zrotation
									JOINT right_hand
									{
										OFFSET	110.7	-3.89999	13.6
										CHANNELS 3  Xrotation Yrotation Zrotation
										JOINT right_ee
										{
											OFFSET	80.8	-5.10001	12.1
											CHANNELS 3  Xrotation Yrotation Zrotation
											End Site
											{
												OFFSET	1	0	0
											}
										}
									}
								}
							}
						}
					}
				}
			}
		}
	}
	JOINT left_hip
	{
		OFFSET	-82.8	-127.5	0.300001
		CHANNELS 3  Xrotation Yrotation Zrotation
		JOINT left_knee
		{
			OFFSET	-28.2	-396.7	2.2
			CHANNELS 3  Xrotation Yrotation Zrotation
			JOINT left_ankle
			{
				OFFSET	-11.7	-411.3	35.4
				CHANNELS 3  Xrotation Yrotation Zrotation
				JOINT left_toes
				{
					OFFSET	0	-60	-88.6
					CHANNELS 3  Xrotation Yrotation Zrotation
					JOINT left_foot_ee
					{
						OFFSET	-22.5	-16.5	-42.2
						CHANNELS 3  Xrotation Yrotation Zrotation
						End Site
						{
							OFFSET	1	0	0
						}
					}
				}
			}
		}
	}
	JOINT right_hip
	{
		OFFSET	82.8	-127.5	0.300001
		CHANNELS 3  Xrotation Yrotation Zrotation
		JOINT right_knee
		{
			OFFSET	28.2	-396.7	2.2
			CHANNELS 3  Xrotation Yrotation Zrotation
			JOINT right_ankle
			{
				OFFSET	11.7	-411.3	35.4
				CHANNELS 3  Xrotation Yrotation Zrotation
				JOINT right_toes
				{
					OFFSET	0	-60	-88.6
					CHANNELS 3  Xrotation Yrotation Zrotation
					JOINT right_foot_ee
					{
						OFFSET	22.5	-16.5	-42.2
						CHANNELS 3  Xrotation Yrotation Zrotation
						End Site
						{
							OFFSET	1	0	0
						}
					}
				}
			}
		}
	}
}
MOTION
Frames: 16
Frame Time: 0.02
2920.06233716 669.801 -1940.18249807 -28.7926782048 44.5174623887 30.8312111484 9.74526 -0.851946 -3.0932 9.75034 -0.653491 -3.14108 9.77448 -0.524559 -3.16514 9.76194 -1.01762 -3.04276 -16.7989 -5.27393 4.98753 -16.912 -12.9303 2.75485 -0.0 0.0 -0.0 9.93521 0.830025 19.4795 -47.4734 -56.9449 38.2308 1.0918 -28.4058 0.276335 -85.2351 -8.48131 5.17874 3.46758 -8.19696 20.3461 -0.0 0.0 -0.0 -1.06159 -21.8855 -1.04051 68.9481 -66.4477 -3.05748 0.186023 5.26508 -0.00855308 75.2062 3.29772 8.31678 -4.41837 -10.4769 24.7227 0.0 0.0 0.0 43.7434 -1.32771 -8.15433 -39.104 -0.410751 5.87245 30.8178 0.25622 -3.99513 14.0129 -0.0 -0.0 -0.0 0.0 -0.0 42.3194 -3.82253 -9.53576 -59.8603 2.18492 -8.51004 34.0733 20.5313 4.79733 37.6382 -0.0 -0.0 0.0 0.0 0.0 
2886.99376534 674.936 -1940.66504566 -29.1475936009 48.6403086892 33.5089157523 9.69987 -0.853707 -3.19685 9.70532 -0.648664 -3.24462 9.72963 -0.512959 -3.2688 9.71618 -1.02251 -3.14697 -18.6932 -5.39694 3.94418 -18.8552 -12.4802 1.52646 -0.0 0.0 -0.0 10.4579 -5.39779 20.8115 -40.6932 -55.1888 43.4995 0.955435 -25.3275 0.214686 -85.1296 -8.46812 5.18138 2.86916 -3.70561 18.0384 -0.0 0.0 -0.0 -0.5266 -23.5599 -2.00629 71.1702 -64.9223 1.1049 0.192392 5.4443 -0.00914758 74.0155 3.16733 8.23709 -3.95965 -8.83322 22.482 0.0 0.0 0.0 38.631 0.376008 -10.9217 -35.8845 -0.22591 5.41356 30.4183 -2.1174 -3.97309 12.283 -0.0 -0.0 -0.0 0.0 -0.0 48.0852 -3.8088 -8.29489 -62.1304 2.43437 -8.75588 35.8709 24.1802 5.15144 36.664 -0.0 -0.0 0.0 0.0 0.0 
2862.41978638 679.387 -1936.41033578 -33.8332872621 52.6205050983 39.8311673742 9.77736 -0.885189 -3.4306 9.78366 -0.665234 -3.47989 9.80961 -0.524702 -3.50381 9.79408 -1.07117 -3.37722 -18.7211 -5.3074 4.76932 -18.8728 -12.7436 2.32985 -0.0 0.0 -0.0 11.5583 -9.33916 23.2809 -39.2154 -51.9995 42.999 0.953258 -25.277 0.213756 -85.1456 -8.47012 5.18098 1.91934 5.71399 15.1433 -0.0 0.0 -0.0 0.686106 -23.0333 -3.61489 80.6134 -63.7417 14.0675 0.188402 5.33204 -0.00877282 73.2783 3.08744 8.1864 -2.84045 -8.65475 14.9138 0.0 0.0 0.0 37.0727 5.62032 -14.3567 -29.8331 0.0504235 4.52661 29.997 -8.07006 -4.00966 2.54171 -0.0 -0.0 -0.0 0.0 -0.0 51.3145 -7.25938 -9.66347 -62.507 2.47669 -8.79571 36.0404 19.5809 4.96064 29.0249 -0.0 -0.0 0.0 0.0 0.0 
2836.88445471 680.812 -1932.0218666 -36.2576730691 54.9379130601 43.662272936 9.71966 -0.865539 -3.47535 9.72615 -0.64278 -3.5233 9.75095 -0.496852 -3.5468 9.73493 -1.05044 -3.42406 -17.8293 -6.13711 4.22619 -18.0221 -14.1022 1.59045 -0.0 0.0 -0.0 11.8387 -10.0126 23.9122 -36.0557 -50.9255 42.7438 0.914953 -24.3816 0.19767 -85.1131 -8.46606 5.18179 1.2826 28.7409 18.4613 -0.0 0.0 -0.0 -0.0473258 -24.1773 -2.72841 89.4915 -65.3944 22.5992 0.191842 5.42881 -0.00909544 75.4661 3.3264 8.33381 -1.70017 0.422366 11.6248 0.0 0.0 0.0 36.473 13.5328 -16.2919 -23.2574 0.242755 3.53633 39.5801 -10.9206 -5.01234 17.0168 -0.0 -0.0 -0.0 0.0 -0.0 53.5732 -6.49759 -11.0592 -55.1186 1.69657 -7.96613 33.8341 21.97 4.83287 32.6341 -0.0 -0.0 0.0 0.0 0.0 
2789.08747234 682.387 -1958.62381825 -39.1256690088 54.6053640899 45.2830198514 10.0853 -1.01199 -3.69373 10.0925 -0.775067 -3.75053 10.1259 -0.644748 -3.77508 10.1081 -1.23247 -3.62621 -17.9956 -5.73858 5.05519 -18.1596 -13.7769 2.50392 -0.0 0.0 -0.0 11.3219 -11.2724 22.7455 -27.1132 -51.9063 45.8654 1.05417 -27.5731 0.258674 -79.3743 -7.74241 5.28773 1.92821 28.549 22.1906 -0.0 0.0 -0.0 2.53639 -23.8991 -6.20783 79.024 -58.3042 17.9914 0.19246 5.4462 -0.009154 75.2894 3.3069 8.32225 -2.94226 -2.04166 19.0357 0.0 0.0 0.0 35.4775 16.0814 -16.8497 -23.1872 0.244191 3.52566 39.1821 -11.5912 -4.99416 23.9192 -0.0 -0.0 -0.0 0.0 -0.0 51.9167 -3.59242 -7.76885 -35.7347 0.217943 -5.39198 40.2298 2.68192 4.92069 38.4139 -0.0 -0.0 0.0 0.0 0.0 
2791.07616683 682.387 -1961.27127001 -38.7807470839 54.3005046753 44.8590965871 10.0853 -1.01199 -3.69373 10.0925 -0.775067 -3.75053 10.1259 -0.644748 -3.77508 10.1081 -1.23247 -3.62621 -17.9956 -5.73858 5.05519 -18.1596 -13.7769 2.50392 -0.0 0.0 -0.0 11.3219 -11.2724 22.7455 -27.1132 -51.9063 45.8654 1.05417 -27.5731 0.258674 -79.3743 -7.74241 5.28773 1.92821 28.549 22.1906 -0.0 0.0 -0.0 2.53639 -23.8991 -6.20783 79.024 -58.3042 17.9914 0.19246 5.4462 -0.009154 75.2894 3.3069 8.32225 -2.94226 -2.04166 19.0357 0.0 0.0 0.0 35.4775 16.0814 -16.8497 -23.1872 0.244191 3.52566 39.1821 -11.5912 -4.99416 23.9192 -0.0 -0.0 -0.0 0.0 -0.0 51.9167 -3.59242 -7.76885 -35.7347 0.217943 -5.39198 40.2298 2.68192 4.92069 38.4139 -0.0 -0.0 0.0 0.0 0.0 
2778.48987438 681.676 -1971.77648742 -38.0084954223 52.3000360538 43.1680004287 10.2103 -1.04819 -3.8397 10.2182 -0.801924 -3.8985 10.2536 -0.675344 -3.92237 10.2345 -1.2859 -3.76686 -17.7766 -6.24074 4.99168 -17.9707 -14.7219 2.27209 -0.0 0.0 -0.0 11.1415 -10.0789 22.3514 -27.2323 -50.6011 44.5948 1.02639 -26.9501 0.245948 -77.1772 -7.46276 5.30884 1.26258 28.9938 18.4138 -0.0 0.0 -0.0 1.94532 -23.7451 -5.39436 76.2952 -58.8779 15.0881 0.192692 5.45272 -0.00917595 74.674 3.23924 8.28149 -3.46925 -4.11537 21.6784 0.0 0.0 0.0 36.1806 20.2249 -17.8981 -22.6093 0.255529 3.43769 38.6415 -14.8159 -5.03809 26.8407 -0.0 -0.0 -0.0 0.0 -0.0 52.2554 -3.3394 -6.38054 -27.032 -0.146255 -4.10746 33.1801 -7.89572 4.22121 40.2406 -0.0 -0.0 0.0 0.0 0.0 
2767.32947405 678.209 -1990.28789617 -36.9716625401 50.7581671411 39.9719410198 10.3082 -1.10594 -3.70915 10.3155 -0.867851 -3.77189 10.3546 -0.752136 -3.79662 10.337 -1.34191 -3.63055 -17.1573 -5.40293 6.49478 -17.262 -13.9932 4.08261 -0.0 0.0 -0.0 11.3153 -8.02085 22.7292 -26.4179 -49.822 44.4279 1.04497 -27.3676 0.25443 -76.977 -7.43723 5.31023 0.426977 28.9277 13.6793 -0.0 0.0 -0.0 1.56717 -23.919 -4.88921 75.2679 -58.7667 13.1436 0.191675 5.42412 -0.00907955 73.8615 3.15059 8.22658 -3.86702 -4.89991 24.0998 0.0 0.0 0.0 35.6666 23.8624 -16.9476 -23.885 0.229322 3.63171 38.6095 -19.8517 -5.21997 31.7471 -0.0 -0.0 -0.0 0.0 -0.0 51.6114 -1.91126 -5.99107 -17.6774 -0.316055 -2.6836 27.5858 -19.3991 3.71946 38.0961 -0.0 -0.0 0.0 0.0 0.0 
2769.72994218 678.209 -1993.32824651 -36.6606917464 50.4167699668 39.5694416419 10.3082 -1.10594 -3.70915 10.3155 -0.867851 -3.77189 10.3546 -0.752136 -3.79662 10.337 -1.34191 -3.63055 -17.1573 -5.40293 6.49478 -17.262 -13.9932 4.08261 -0.0 0.0 -0.0 11.3153 -8.02085 22.7292 -26.4179 -49.822 44.4279 1.04497 -27.3676 0.25443 -76.977 -7.43723 5.31023 0.426977 28.9277 13.6793 -0.0 0.0 -0.0 1.56717 -23.919 -4.88921 75.2679 -58.7667 13.1436 0.191675 5.42412 -0.00907955 73.8615 3.15059 8.22658 -3.86702 -4.89991 24.0998 0.0 0.0 0.0 35.6666 23.8624 -16.9476 -23.885 0.229322 3.63171 38.6095 -19.8517 -5.21997 31.7471 -0.0 -0.0 -0.0 0.0 -0.0 51.6114 -1.91126 -5.99107 -17.6774 -0.316055 -2.6836 27.5858 -19.3991 3.71946 38.0961 -0.0 -0.0 0.0 0.0 0.0 
2759.14636398 674.595 -2008.03041333 -36.3957048865 48.80234215 37.9079384912 10.4467 -1.03917 -3.69661 10.454 -0.80201 -3.75513 10.4883 -0.695514 -3.77628 10.4707 -1.28279 -3.61939 -17.3967 -4.14885 6.83702 -17.4264 -11.7537 4.85492 -0.0 0.0 -0.0 11.4083 -6.49561 22.9072 -25.5758 -49.4338 43.7013 1.14319 -29.522 0.301221 -76.8877 -7.42584 5.31081 -0.352459 29.006 9.41881 -0.0 0.0 -0.0 1.27018 -23.7975 -4.47724 75.5874 -58.7715 12.8887 0.190005 5.37713 -0.00892242 73.3666 3.09698 8.19253 -4.28478 -6.51901 26.1976 0.0 0.0 0.0 35.3844 26.8469 -17.4209 -23.9888 0.227 3.64746 38.2573 -22.9277 -5.32671 36.179 -0.0 -0.0 -0.0 0.0 -0.0 51.1721 -1.65437 -3.80732 -6.45539 -0.211454 -0.967624 23.9473 -27.4511 3.42794 30.5744 -0.0 -0.0 0.0 0.0 0.0 
2762.57082946 674.595 -2012.2117525 -36.0104319388 48.3378146189 37.3940863668 10.4467 -1.03917 -3.69661 10.454 -0.80201 -3.75513 10.4883 -0.695514 -3.77628 10.4707 -1.28279 -3.61939 -17.3967 -4.14885 6.83702 -17.4264 -11.7537 4.85492 -0.0 0.0 -0.0 11.4083 -6.49561 22.9072 -25.5758 -49.4338 43.7013 1.14319 -29.522 0.301221 -76.8877 -7.42584 5.31081 -0.352459 29.006 9.41881 -0.0 0.0 -0.0 1.27018 -23.7975 -4.47724 75.5874 -58.7715 12.8887 0.190005 5.37713 -0.00892242 73.3666 3.09698 8.19253 -4.28478 -6.51901 26.1976 0.0 0.0 0.0 35.3844 26.8469 -17.4209 -23.9888 0.227 3.64746 38.2573 -22.9277 -5.32671 36.179 -0.0 -0.0 -0.0 0.0 -0.0 51.1721 -1.65437 -3.80732 -6.45539 -0.211454 -0.967624 23.9473 -27.4511 3.42794 30.5744 -0.0 -0.0 0.0 0.0 0.0 
2755.77898006 670.108 -2025.75153218 -36.0624975624 47.0899261887 36.535064659 10.54 -0.928732 -3.53973 10.5467 -0.701758 -3.59156 10.5738 -0.605058 -3.60909 10.5575 -1.16711 -3.46852 -17.3623 -2.75682 6.82732 -17.3272 -9.07987 5.37216 -0.0 0.0 -0.0 11.4528 -5.43605 22.9753 -24.8217 -48.2509 42.8766 1.21501 -31.0417 0.33744 -77.4349 -7.49561 5.30692 -1.21582 28.8988 4.70527 -0.0 0.0 -0.0 1.08451 -23.277 -4.18442 77.0654 -59.0864 14.1754 0.191778 5.42701 -0.00908937 73.0461 3.06242 8.17022 -4.4933 -6.88612 27.5115 0.0 0.0 0.0 35.1824 27.9685 -17.5544 -23.8718 0.229616 3.6297 37.6597 -25.0323 -5.37719 39.5117 -0.0 -0.0 -0.0 0.0 -0.0 50.7627 -1.45816 -2.50483 1.43659 0.0618179 0.211774 24.5775 -29.362 3.55485 24.8721 -0.0 -0.0 0.0 0.0 0.0 
2747.18177425 664.636 -2044.87672578 -36.2177821688 46.6783251994 35.8416692688 10.6568 -0.92323 -3.49935 10.6634 -0.698831 -3.55092 10.69 -0.610448 -3.56716 10.6741 -1.16583 -3.42626 -17.3299 -1.90899 6.25194 -17.2794 -7.13583 5.14912 -0.0 0.0 -0.0 11.2988 -6.55956 22.6675 -24.2875 -47.3891 42.6504 1.26731 -32.1188 0.364832 -76.1125 -7.32693 5.31517 -1.89737 26.8244 0.0594883 -0.0 0.0 -0.0 1.04452 -23.1538 -4.11971 79.1046 -59.673 16.2337 0.195657 5.5361 -0.00945988 72.5161 3.00555 8.13292 -4.35961 -5.09695 27.6069 0.0 0.0 0.0 32.958 25.0296 -15.64 -23.8097 0.23099 3.62027 38.5172 -22.3647 -5.32421 40.1755 -0.0 -0.0 -0.0 0.0 -0.0 50.0849 -0.361909 -4.43382 6.52721 0.323265 0.948587 24.6111 -27.7274 3.5189 20.8351 -0.0 -0.0 0.0 0.0 0.0 
2736.98644502 664.987 -2067.0047934 -36.8227726448 46.6803654625 36.4181582102 10.7257 -0.906742 -3.47892 10.7322 -0.683673 -3.52948 10.7577 -0.599985 -3.54465 10.742 -1.15195 -3.40568 -16.5236 -1.3694 6.17163 -16.4567 -6.13657 5.31001 -0.0 0.0 -0.0 10.8295 -7.6311 21.6543 -24.468 -46.4012 44.286 1.4115 -34.9598 0.444519 -76.4065 -7.36446 5.31368 -3.06312 25.4247 -7.16047 -0.0 0.0 -0.0 1.17132 -23.4928 -4.32001 80.5083 -59.334 17.0575 0.198518 5.61656 -0.00973793 71.904 2.94029 8.08919 -4.26002 -2.36705 28.4658 0.0 0.0 0.0 31.5427 22.3178 -15.1942 -22.2847 0.261505 3.38825 38.3613 -19.8163 -5.19524 40.1152 -0.0 -0.0 -0.0 0.0 -0.0 49.7453 0.691311 -5.12746 5.3782 0.258533 0.784313 26.8131 -26.5014 3.76446 16.8903 -0.0 -0.0 0.0 0.0 0.0 
2718.39293824 657.168 -2087.45668449 -37.3999709622 47.1848271266 37.4269520329 10.8477 -0.937208 -3.46985 10.8541 -0.714655 -3.52236 10.8813 -0.638826 -3.53688 10.8658 -1.18908 -3.39188 -16.0414 -1.2026 5.66931 -15.9823 -5.57518 4.91711 -0.0 0.0 -0.0 11.0825 -9.32883 22.2214 -25.0267 -43.6475 44.0769 1.48633 -36.3613 0.48815 -77.3035 -7.47886 5.30792 -3.94411 20.9192 -15.0144 -0.0 0.0 -0.0 1.89342 -24.2637 -5.35088 82.8609 -58.691 21.0776 0.201897 5.71153 -0.0100714 70.5756 2.80031 7.99191 -4.06776 -0.348437 28.1492 0.0 0.0 0.0 28.637 20.6459 -15.8808 -21.7094 0.271411 3.30053 39.3541 -15.8172 -5.13531 40.244 -0.0 -0.0 -0.0 0.0 -0.0 49.9201 2.24091 -4.93797 2.76157 0.123533 0.405696 30.6697 -22.6705 4.13046 11.2981 -0.0 -0.0 0.0 0.0 0.0 
2722.23816929 657.168 -2091.6354087 -37.0601263037 46.7674196664 36.9620966838 10.8477 -0.937208 -3.46985 10.8541 -0.714655 -3.52236 10.8813 -0.638826 -3.53688 10.8658 -1.18908 -3.39188 -16.0414 -1.2026 5.66931 -15.9823 -5.57518 4.91711 -0.0 0.0 -0.0 11.0825 -9.32883 22.2214 -25.0267 -43.6475 44.0769 1.48633 -36.3613 0.48815 -77.3035 -7.47886 5.30792 -3.94411 20.9192 -15.0144 -0.0 0.0 -0.0 1.89342 -24.2637 -5.35088 82.8609 -58.691 21.0776 0.201897 5.71153 -0.0100714 70.5756 2.80031 7.99191 -4.06776 -0.348437 28.1492 0.0 0.0 0.0 28.637 20.6459 -15.8808 -21.7094 0.271411 3.30053 39.3541 -15.8172 -5.13531 40.244 -0.0 -0.0 -0.0 0.0 -0.0 49.9201 2.24091 -4.93797 2.76157 0.123533 0.405696 30.6697 -22.6705 4.13046 11.2981 -0.0 -0.0 0.0 0.0 0.0 
